# xmcd CD database file
#
# Track frame offsets:
#	150
#	19504
#	41225
#	58913
#	59594
#	77085
#	93074
#	110609
#	131334
#	149392
#	168372
#
# Disc length: 2436 seconds
#
# Revision: 0
# Processed by: cddbd v1.5.1PL0 Copyright (c) Steve Scherf et al.
# Submitted via: CDex 1.51
#
DISCID=9309820b
DTITLE=Lhasa - la llorona
DYEAR=1900
DGENRE=Jazz
TTITLE0=I1
TTITLE1=I2
TTITLE2=I3
TTITLE3=I4
TTITLE4=I5
TTITLE5=I6
TTITLE6=I7
TTITLE7=I8
TTITLE8=I9
TTITLE9=I10
TTITLE10=I11
EXTD=
EXTT0=
EXTT1=
EXTT2=
EXTT3=
EXTT4=
EXTT5=
EXTT6=
EXTT7=
EXTT8=
EXTT9=
EXTT10=
PLAYORDER=
